Coordinates
version=1
nRows=26
nColumns=24
inDegrees=yes

Units are S.I. units (second, meters, Newtons, ...)
Angles are in degrees.

endheader
time	pelvis_tilt	pelvis_list	pelvis_rotation	pelvis_tx	pelvis_ty	pelvis_tz	hip_flexion_r	hip_adduction_r	hip_rotation_r	knee_angle_r	ankle_angle_r	subtalar_angle_r	mtp_angle_r	hip_flexion_l	hip_adduction_l	hip_rotation_l	knee_angle_l	ankle_angle_l	subtalar_angle_l	mtp_angle_l	lumbar_extension	lumbar_bending	lumbar_rotation
      2.29500000	     -7.46118563	     -7.04012012	     14.35647453	      0.89918876	      1.25509279	     -0.90745144	     -2.99043533	      9.78975708	    -17.90828513	    -30.64736024	    -11.95287783	     11.15206853	     18.03641051	     31.48157640	      9.87207149	     26.98160948	    -18.90811336	    -13.10026926	    -24.21472822	      0.81078531	      2.30646872	      3.48326713	    -12.39380024
      2.30000000	     -7.59956083	     -6.87460134	     14.67640054	      0.90592439	      1.25610148	     -0.90811528	     -2.23075781	      9.11032891	    -19.01620284	    -32.09972770	    -13.11191378	     10.71684686	     17.54978577	     31.03862827	     10.08054745	     27.07810551	    -18.84053913	    -12.62974086	    -24.03771525	      0.71407577	      2.53196538	      3.09519029	    -12.69851909
      2.30500000	     -7.77504910	     -6.68865686	     14.89487384	      0.91268558	      1.25717381	     -0.90863727	     -1.42342896	      8.39789712	    -19.93043880	    -33.55603496	    -14.13535466	     10.22928190	     16.51373078	     30.57599719	     10.21785308	     27.04285455	    -18.64896038	    -12.06705404	    -23.58630720	      0.60083705	      2.78963207	      2.68713261	    -12.90286316
      2.31000000	     -7.89731025	     -6.50611685	     15.10167899	      0.91933124	      1.25827535	     -0.90920804	     -0.65890626	      7.67530745	    -20.81594688	    -34.99447418	    -14.97803666	      9.59173875	     15.86545964	     30.04967615	     10.34177373	     27.02715739	    -18.45103958	    -11.56049186	    -23.37595634	      0.49724433	      2.97106444	      2.32279377	    -13.09813268
      2.31500000	     -8.04153905	     -6.32251835	     15.22985688	      0.92599225	      1.25942091	     -0.90966650	      0.13928041	      6.95442414	    -21.54110991	    -36.40611316	    -15.65409779	      8.86741861	     15.06061612	     29.51264520	     10.40128355	     26.90896194	    -18.17454672	    -10.98074422	    -23.00967111	      0.41529582	      3.17516569	      1.96000359	    -13.23199790
      2.32000000	     -8.15144173	     -6.08936544	     15.33891508	      0.93262144	      1.26062371	     -0.91016483	      0.89210316	      6.15635422	    -22.24241515	    -37.80099034	    -16.01862069	      8.26435847	     14.88922117	     28.85278674	     10.47184835	     26.81233850	    -17.74839818	    -10.57733793	    -22.92471682	      0.38478737	      3.32445198	      1.57853674	    -13.34546223
      2.32500000	     -8.28637693	     -5.93010049	     15.34532589	      0.93913300	      1.26183730	     -0.91047567	      1.73241132	      5.49967186	    -22.67041317	    -39.14233702	    -16.44758430	      7.24717718	     13.53118592	     28.28299348	     10.41551184	     26.57627576	    -17.39071903	     -9.88866542	    -22.28318905	      0.19291977	      3.49564613	      1.28286910	    -13.38139232
      2.33000000	     -8.37346850	     -5.72375611	     15.31229258	      0.94562825	      1.26311480	     -0.91078406	      2.51768360	      4.79945472	    -23.03777271	    -40.44232961	    -16.53473181	      6.19839228	     13.14101495	     27.58858156	     10.36686540	     26.34139194	    -16.90327336	     -9.47157163	    -22.17773066	      0.14081317	      3.59967130	      0.97519520	    -13.40254219
      2.33500000	     -8.45751924	     -5.53847459	     15.24173612	      0.95204434	      1.26436675	     -0.91104030	      3.32868004	      4.13231627	    -23.32557941	    -41.70651786	    -16.53883047	      5.20085701	     12.17540249	     26.91425433	     10.27477108	     26.01718296	    -16.44653882	     -8.84439155	    -21.69377646	      0.00113322	      3.69917963	      0.70134951	    -13.35093237
      2.34000000	     -8.52067492	     -5.33526730	     15.09054919	      0.95842512	      1.26570081	     -0.91123097	      4.13577336	      3.48724054	    -23.44943601	    -42.89498358	    -16.38889742	      4.05053642	     11.80270990	     26.15054297	     10.14391841	     25.68369158	    -15.84733010	     -8.42486149	    -21.52391065	     -0.07557279	      3.77237270	      0.43441521	    -13.19996521
      2.34500000	     -8.57433430	     -5.13026885	     14.88557595	      0.96474826	      1.26704654	     -0.91133401	      4.95790664	      2.88073152	    -23.44449409	    -44.02701015	    -16.03346783	      2.89998077	     11.41687471	     25.35109029	      9.97357378	     25.26382188	    -15.17960200	     -8.00822174	    -21.26358614	     -0.12365042	      3.82050938	      0.19072168	    -13.06405635
      2.35000000	     -8.61758373	     -4.94259121	     14.64516718	      0.97100409	      1.26837051	     -0.91139060	      5.79772033	      2.31984380	    -23.37800456	    -45.09337082	    -15.66608219	      1.63563103	     10.89388807	     24.55845874	      9.77816801	     24.81586343	    -14.53273389	     -7.49315247	    -20.89157558	     -0.18178345	      3.86874810	     -0.02901214	    -12.82436549
      2.35500000	     -8.64247386	     -4.73715469	     14.33641727	      0.97722707	      1.26972356	     -0.91135235	      6.63556035	      1.79514604	    -23.15937359	    -46.08666816	    -15.06553922	      0.45862170	     10.49457413	     23.69644861	      9.55332373	     24.27600151	    -13.77828676	     -7.12054016	    -20.60787459	     -0.22753560	      3.88081373	     -0.23624108	    -12.59590090
      2.36000000	     -8.66327002	     -4.54555424	     13.97986509	      0.98337782	      1.27106373	     -0.91124611	      7.50241761	      1.33150157	    -22.84044064	    -47.00397293	    -14.44367447	     -0.81911363	     10.06833166	     22.82990014	      9.30047566	     23.68106479	    -13.00425075	     -6.71806816	    -20.27257629	     -0.24737741	      3.89080361	     -0.41772805	    -12.28777381
      2.36500000	     -8.65752448	     -4.37185058	     13.58826685	      0.98941714	      1.27236829	     -0.91109204	      8.37044354	      0.93879408	    -22.44199607	    -47.84105056	    -13.77817682	     -2.19706588	      9.53692550	     21.95875747	      9.02675896	     23.07001937	    -12.26481300	     -6.22150386	    -19.79284808	     -0.25713641	      3.86507341	     -0.56545896	    -11.93215260
      2.37000000	     -8.64880813	     -4.18490031	     13.13785718	      0.99543181	      1.27367195	     -0.91083920	      9.25430518	      0.58858610	    -21.91792132	    -48.59779857	    -12.99999106	     -3.48499735	      9.10135456	     21.03722301	      8.73609763	     22.36197967	    -11.41364361	     -5.86601658	    -19.38202776	     -0.27272725	      3.83350140	     -0.71162891	    -11.55393174
      2.37500000	     -8.63039574	     -3.99958129	     12.63885993	      1.00140186	      1.27494540	     -0.91051370	     10.14890372	      0.29598019	    -21.29806449	    -49.27018480	    -12.19153300	     -4.78577358	      8.69783442	     20.09418671	      8.43567684	     21.58835611	    -10.53756492	     -5.52881584	    -18.96892285	     -0.22267748	      3.79315967	     -0.84389940	    -11.12551107
      2.38000000	     -8.62336999	     -3.79087627	     12.08867808	      1.00730383	      1.27614381	     -0.91014380	     11.08520125	      0.01068357	    -20.58584821	    -49.90180477	    -11.28502147	     -5.89710418	      8.44059285	     19.13631752	      8.16349531	     20.77422824	     -9.60927641	     -5.33268339	    -18.70775891	     -0.19831932	      3.75627483	     -0.99247322	    -10.65089124
      2.38500000	     -8.56972385	     -3.65161293	     11.53460381	      1.01315443	      1.27734377	     -0.90967211	     11.96496270	     -0.09320118	    -19.80955850	    -50.34666869	    -10.51915815	     -7.38701095	      8.00424514	     18.18442119	      7.82159916	     19.85289292	     -8.75388700	     -4.88274484	    -18.04130519	     -0.03273250	      3.67987403	     -1.06048405	    -10.16886729
      2.39000000	     -8.53476656	     -3.49040580	     10.91909787	      1.01895848	      1.27846115	     -0.90915955	     12.88710757	     -0.18571798	    -18.93471714	    -50.74726073	     -9.65884922	     -8.62307049	      7.66945185	     17.21066886	      7.50686239	     18.91227589	     -7.82588210	     -4.58709750	    -17.53969281	      0.10731792	      3.62310126	     -1.14396201	     -9.61629384
      2.39500000	     -8.50460071	     -3.35361857	     10.28939615	      1.02465330	      1.27950582	     -0.90862144	     13.82574061	     -0.19344714	    -17.98525056	    -51.05095057	     -8.81116283	     -9.81049177	      7.37164878	     16.26311222	      7.19255850	     17.96485732	     -6.91941089	     -4.32346503	    -17.01067959	      0.24271181	      3.56016088	     -1.19575832	     -9.04486823
      2.40000000	     -8.46201017	     -3.19822212	      9.64423213	      1.03033597	      1.28046534	     -0.90800618	     14.75097701	     -0.17527031	    -17.00712326	    -51.28510717	     -8.00439633	    -11.04539474	      7.05437685	     15.31624261	      6.91746892	     16.89618565	     -6.05047382	     -3.99125101	    -16.36564833	      0.45832430	      3.48407745	     -1.27071654	     -8.49098385
      2.40500000	     -8.43074098	     -3.06209995	      8.98193021	      1.03593801	      1.28134055	     -0.90737201	     15.68730083	     -0.08647192	    -15.96890006	    -51.42192469	     -7.21044159	    -12.17095911	      6.78376830	     14.40119390	      6.65075635	     15.80746878	     -5.21042735	     -3.67347678	    -15.70384918	      0.70425957	      3.41334780	     -1.32103085	     -7.90719320
      2.41000000	     -8.39889777	     -2.93739276	      8.31944545	      1.04150482	      1.28212968	     -0.90673319	     16.61009116	      0.05972323	    -14.89515162	    -51.46467305	     -6.44132099	    -13.23957738	      6.53431742	     13.48988555	      6.40091588	     14.73272947	     -4.37636656	     -3.38388699	    -15.05861787	      0.91732575	      3.34651047	     -1.35769627	     -7.32206394
      2.41500000	     -8.36856144	     -2.82121841	      7.65744525	      1.04699156	      1.28284136	     -0.90606142	     17.52240452	      0.26255941	    -13.78165456	    -51.41546495	     -5.72491079	    -14.25802075	      6.29288535	     12.61039739	      6.17179951	     13.61581927	     -3.59504375	     -3.06744847	    -14.31813918	      1.16049852	      3.27125990	     -1.38871405	     -6.73780552
      2.42000000	     -8.34733668	     -2.69695837	      7.01100534	      1.05247028	      1.28344623	     -0.90539118	     18.42623905	      0.47841669	    -12.67264054	    -51.29688608	     -5.02738698	    -15.20296433	      6.07947149	     11.76146505	      5.98953896	     12.52128797	     -2.86296865	     -2.74416155	    -13.59273679	      1.38875501	      3.20163471	     -1.43916353	     -6.17802812
